<svg width="96" height="46" viewBox="0 0 96 46" fill="none" xmlns="http://www.w3.org/2000/svg">
<path d="M68.4872 9.74658L54.5612 19.6066L60.5104 23.589L68.4872 18.8767V9.74658Z" fill="#161A34"/>
<path d="M27.5128 34.6336C27.5128 34.6336 11.3539 25.0301 1 18.8767C1 21.9822 1 26.8288 1 26.8288L27.5128 43.4692L47.8661 31.5411L39.9884 26.5342L27.5128 34.6336Z" fill="#161A34"/>
<path d="M95 18.8767L68.4872 35.5171L27.7806 10.3356L13.453 18.8767L19.7464 22.9883L27.5128 18.0566L47.8661 31.5411L68.4872 44.5L95 27.7123V18.8767Z" fill="#161A34"/>
<path d="M82.0114 18.8767L68.4872 9.74658V18.8767L74.7806 23.589L82.0114 18.8767Z" fill="#161A34"/>
<path d="M1 18.8767C11.3539 25.0301 27.5128 34.6336 27.5128 34.6336L39.9884 26.5342L34.6097 23.1157L26.9772 27.7123L19.7464 22.9883L13.453 18.8767L27.7806 10.3356L68.4872 35.5171L95 18.8767L67.5499 1.5L47.5983 14.9455L54.5612 19.6066L68.4872 9.74658L82.0114 18.8767L74.7806 23.589L67.5499 28.3014L60.5104 23.589L27.5128 1.5C27.5128 1.5 11.3539 12.0907 1 18.8767Z" fill="#3563E9"/>
<path d="M27.5128 34.6336C27.5128 34.6336 11.3539 25.0301 1 18.8767M27.5128 34.6336L39.9884 26.5342M27.5128 34.6336V43.4692M1 18.8767C11.3539 12.0907 27.5128 1.5 27.5128 1.5M1 18.8767C1 21.9822 1 26.8288 1 26.8288M1 18.8767V26.8288M27.5128 1.5C27.5128 1.5 47.624 14.9627 60.5104 23.589M27.5128 1.5L60.5104 23.589M67.5499 28.3014L74.7806 23.589M67.5499 28.3014C67.5499 28.3014 63.2595 25.4293 60.5104 23.589M67.5499 28.3014L60.5104 23.589M68.4872 9.74657L82.0114 18.8767L74.7806 23.589M68.4872 9.74657L54.5612 19.6066M68.4872 9.74657V18.8767M54.5612 19.6066L47.5983 14.9455L67.5499 1.5L95 18.8767M54.5612 19.6066L60.5104 23.589M95 18.8767L68.4872 35.5171M95 18.8767V27.7123L68.4872 44.5M68.4872 35.5171L27.7806 10.3356M68.4872 35.5171V44.5M27.7806 10.3356L13.453 18.8767L19.7464 22.9883M27.7806 10.3356L27.5128 18.0566M39.9884 26.5342L34.6097 23.1157L26.9772 27.7123L19.7464 22.9883M39.9884 26.5342C39.9884 26.5342 44.6524 29.4986 47.8661 31.5411M39.9884 26.5342L47.8661 31.5411M27.5128 43.4692C27.5128 43.4692 39.9176 36.1993 47.8661 31.5411M27.5128 43.4692L1 26.8288M27.5128 43.4692L47.8661 31.5411M47.8661 31.5411C55.9191 36.6019 68.4872 44.5 68.4872 44.5M47.8661 31.5411L27.5128 18.0566M47.8661 31.5411L68.4872 44.5M68.4872 18.8767L74.7806 23.589M68.4872 18.8767C68.4872 18.8767 63.6255 21.7488 60.5104 23.589M68.4872 18.8767L60.5104 23.589M27.5128 18.0566L19.7464 22.9883" stroke="white"/>
</svg>
